%FSTAX23Y23*%
%MOIN*%
%SFA1B1*%

%IPPOS*%
%ADD23C,0.005000*%
%ADD25C,0.006000*%
%ADD34C,0.009840*%
%ADD35C,0.020000*%
%ADD36C,0.023620*%
%ADD37C,0.007870*%
%ADD38C,0.010000*%
%LNpumpminder_v2-1*%
%LPD*%
G36*
X01445Y02367D02*
Y02407D01*
X01485*
X01445Y02367*
G37*
G54D23*
X01444Y01848D02*
Y02408D01*
X01838Y01848D02*
Y02408D01*
X01444Y01848D02*
X01838D01*
X01444Y02408D02*
X01838D01*
X01446Y02367D02*
X01485Y02406D01*
G54D25*
X01713Y012D02*
D01*
X01712Y01204*
X01712Y01208*
X01711Y01213*
X0171Y01217*
X01709Y01221*
X01707Y01225*
X01705Y01229*
X01703Y01233*
X017Y01237*
X01698Y0124*
X01695Y01243*
X01692Y01246*
X01688Y01249*
X01685Y01252*
X01681Y01254*
X01677Y01256*
X01673Y01258*
X01669Y01259*
X01665Y01261*
X0166Y01262*
X01656Y01262*
X01652Y01262*
X01647*
X01643Y01262*
X01639Y01262*
X01634Y01261*
X0163Y01259*
X01626Y01258*
X01622Y01256*
X01618Y01254*
X01614Y01252*
X01611Y01249*
X01607Y01246*
X01604Y01243*
X01601Y0124*
X01599Y01237*
X01596Y01233*
X01594Y01229*
X01592Y01225*
X0159Y01221*
X01589Y01217*
X01588Y01213*
X01587Y01208*
X01587Y01204*
X01586Y012*
X01587Y01195*
X01587Y01191*
X01588Y01186*
X01589Y01182*
X0159Y01178*
X01592Y01174*
X01594Y0117*
X01596Y01166*
X01599Y01162*
X01601Y01159*
X01604Y01156*
X01607Y01153*
X01611Y0115*
X01614Y01147*
X01618Y01145*
X01622Y01143*
X01626Y01141*
X0163Y0114*
X01634Y01138*
X01639Y01137*
X01643Y01137*
X01647Y01137*
X01652*
X01656Y01137*
X0166Y01137*
X01665Y01138*
X01669Y0114*
X01673Y01141*
X01677Y01143*
X01681Y01145*
X01685Y01147*
X01688Y0115*
X01692Y01153*
X01695Y01156*
X01698Y01159*
X017Y01162*
X01703Y01166*
X01705Y0117*
X01707Y01174*
X01709Y01178*
X0171Y01182*
X01711Y01186*
X01712Y01191*
X01712Y01195*
X01713Y012*
X01805Y01635D02*
X01834D01*
X01805Y01704D02*
X01834D01*
Y01679D02*
Y01704D01*
Y01635D02*
Y0166D01*
X01805Y01679D02*
Y01704D01*
Y01635D02*
Y0166D01*
X01796Y01404D02*
Y0143D01*
Y01449D02*
Y01475D01*
X01823Y01404D02*
Y0143D01*
Y01449D02*
Y01475D01*
X01796D02*
X01823D01*
X01796Y01404D02*
X01823D01*
X01805Y01495D02*
Y01524D01*
X01874Y01495D02*
Y01524D01*
X01849Y01495D02*
X01874D01*
X01805D02*
X0183D01*
X01849Y01524D02*
X01874D01*
X01805D02*
X0183D01*
X01855Y01704D02*
X01884D01*
X01855Y01635D02*
X01884D01*
X01855D02*
Y0166D01*
Y01679D02*
Y01704D01*
X01884Y01635D02*
Y0166D01*
Y01679D02*
Y01704D01*
X01712Y01675D02*
Y01704D01*
X01781Y01675D02*
Y01704D01*
X01756Y01675D02*
X01781D01*
X01712D02*
X01737D01*
X01756Y01704D02*
X01781D01*
X01712D02*
X01737D01*
X01804Y01573D02*
X0183D01*
X01849D02*
X01875D01*
X01804Y01546D02*
X0183D01*
X01849D02*
X01875D01*
Y01573*
X01804Y01546D02*
Y01573D01*
X0142Y01595D02*
Y01621D01*
Y0155D02*
Y01576D01*
X01393Y01595D02*
Y01621D01*
Y0155D02*
Y01576D01*
Y0155D02*
X0142D01*
X01393Y01621D02*
X0142D01*
X01499Y0172D02*
X01536D01*
X01443D02*
X0148D01*
X01499Y01759D02*
X01536D01*
X01443D02*
X0148D01*
X01443Y0172D02*
Y01759D01*
X01536Y0172D02*
Y01759D01*
X01499Y01786D02*
X01525D01*
X01454D02*
X0148D01*
X01499Y01813D02*
X01525D01*
X01454D02*
X0148D01*
X01454Y01786D02*
Y01813D01*
X01525Y01786D02*
Y01813D01*
X01702Y01751D02*
X01731D01*
X01702Y0182D02*
X01731D01*
Y01795D02*
Y0182D01*
Y01751D02*
Y01776D01*
X01702Y01795D02*
Y0182D01*
Y01751D02*
Y01776D01*
X01259Y01861D02*
X01285D01*
X01214D02*
X0124D01*
X01259Y01888D02*
X01285D01*
X01214D02*
X0124D01*
X01214Y01861D02*
Y01888D01*
X01285Y01861D02*
Y01888D01*
X01259Y01961D02*
X01285D01*
X01214D02*
X0124D01*
X01259Y01988D02*
X01285D01*
X01214D02*
X0124D01*
X01214Y01961D02*
Y01988D01*
X01285Y01961D02*
Y01988D01*
X01285Y02154D02*
X01314D01*
X01285Y02085D02*
X01314D01*
X01285D02*
Y0211D01*
Y02129D02*
Y02154D01*
X01314Y02085D02*
Y0211D01*
Y02129D02*
Y02154D01*
X01345Y02085D02*
X01374D01*
X01345Y02154D02*
X01374D01*
Y02129D02*
Y02154D01*
Y02085D02*
Y0211D01*
X01345Y02129D02*
Y02154D01*
Y02085D02*
Y0211D01*
X01065Y02105D02*
X01094D01*
X01065Y02174D02*
X01094D01*
Y02149D02*
Y02174D01*
Y02105D02*
Y0213D01*
X01065Y02149D02*
Y02174D01*
Y02105D02*
Y0213D01*
X0191Y02159D02*
X01939D01*
X0191Y0209D02*
X01939D01*
X0191D02*
Y02115D01*
Y02134D02*
Y02159D01*
X01939Y0209D02*
Y02115D01*
Y02134D02*
Y02159D01*
X01531Y01081D02*
Y01318D01*
X01768*
Y01081D02*
Y01318D01*
X01531Y01081D02*
X01768D01*
X02266Y01919D02*
X02262Y01923D01*
X02254*
X0225Y01919*
Y01904*
X02254Y019*
X02262*
X02266Y01904*
X02273Y019D02*
X02281D01*
X02277*
Y01923*
X02273Y01919*
X01175Y01979D02*
X01172Y01983D01*
X01164*
X0116Y01979*
Y01964*
X01164Y0196*
X01172*
X01175Y01964*
X01199Y0196D02*
X01183D01*
X01199Y01975*
Y01979*
X01195Y01983*
X01187*
X01183Y01979*
X01175Y01879D02*
X01172Y01883D01*
X01164*
X0116Y01879*
Y01864*
X01164Y0186*
X01172*
X01175Y01864*
X01183Y01879D02*
X01187Y01883D01*
X01195*
X01199Y01879*
Y01876*
X01195Y01872*
X01191*
X01195*
X01199Y01868*
Y01864*
X01195Y0186*
X01187*
X01183Y01864*
X01396Y01749D02*
X01392Y01753D01*
X01384*
X0138Y01749*
Y01734*
X01384Y0173*
X01392*
X01396Y01734*
X01415Y0173D02*
Y01753D01*
X01403Y01742*
X01419*
X01416Y01809D02*
X01412Y01813D01*
X01404*
X014Y01809*
Y01794*
X01404Y0179*
X01412*
X01416Y01794*
X01439Y01813D02*
X01423D01*
Y01802*
X01431Y01805*
X01435*
X01439Y01802*
Y01794*
X01435Y0179*
X01427*
X01423Y01794*
X01351Y0161D02*
X01348Y01614D01*
X0134*
X01336Y0161*
Y01595*
X0134Y01591*
X01348*
X01351Y01595*
X01375Y01614D02*
X01367Y0161D01*
X01359Y01603*
Y01595*
X01363Y01591*
X01371*
X01375Y01595*
Y01599*
X01371Y01603*
X01359*
X01856Y01429D02*
X01852Y01433D01*
X01844*
X0184Y01429*
Y01414*
X01844Y0141*
X01852*
X01856Y01414*
X01863Y01433D02*
X01879D01*
Y01429*
X01863Y01414*
Y0141*
X01906Y01569D02*
X01902Y01573D01*
X01894*
X0189Y01569*
Y01554*
X01894Y0155*
X01902*
X01906Y01554*
X01913Y01569D02*
X01917Y01573D01*
X01925*
X01929Y01569*
Y01565*
X01925Y01562*
X01929Y01558*
Y01554*
X01925Y0155*
X01917*
X01913Y01554*
Y01558*
X01917Y01562*
X01913Y01565*
Y01569*
X01917Y01562D02*
X01925D01*
X019Y01825D02*
Y01848D01*
X01912*
X01916Y01844*
Y01837*
X01912Y01833*
X019*
X01923Y01825D02*
X01931D01*
X01927*
Y01848*
X01923Y01844*
X01236Y02044D02*
Y02059D01*
X01232Y02063*
X01224*
X0122Y02059*
Y02044*
X01224Y0204*
X01232*
X01228Y02048D02*
X01236Y0204D01*
X01232D02*
X01236Y02044D01*
X01243Y0204D02*
X01251D01*
X01247*
Y02063*
X01243Y02059*
X01695Y01724D02*
Y01739D01*
X01692Y01743*
X01684*
X0168Y01739*
Y01724*
X01684Y0172*
X01692*
X01688Y01728D02*
X01695Y0172D01*
X01692D02*
X01695Y01724D01*
X01719Y0172D02*
X01703D01*
X01719Y01736*
Y01739*
X01715Y01743*
X01707*
X01703Y01739*
X0194Y0217D02*
X01916D01*
Y02182*
X0192Y02186*
X01928*
X01932Y02182*
Y0217*
Y02178D02*
X0194Y02186D01*
Y02193D02*
Y02201D01*
Y02197*
X01916*
X0192Y02193*
X0137Y0217D02*
X01346D01*
Y02182*
X0135Y02186*
X01358*
X01362Y02182*
Y0217*
Y02178D02*
X0137Y02186D01*
Y02209D02*
Y02193D01*
X01354Y02209*
X0135*
X01346Y02205*
Y02197*
X0135Y02193*
X0131Y0217D02*
X01286D01*
Y02182*
X0129Y02186*
X01298*
X01302Y02182*
Y0217*
Y02178D02*
X0131Y02186D01*
X0129Y02193D02*
X01286Y02197D01*
Y02205*
X0129Y02209*
X01294*
X01298Y02205*
Y02201*
Y02205*
X01302Y02209*
X01306*
X0131Y02205*
Y02197*
X01306Y02193*
X0109Y0219D02*
X01066D01*
Y02202*
X0107Y02206*
X01078*
X01082Y02202*
Y0219*
Y02198D02*
X0109Y02206D01*
Y02225D02*
X01066D01*
X01078Y02213*
Y02229*
X01657Y0168D02*
Y01703D01*
X01669*
X01672Y01699*
Y01692*
X01669Y01688*
X01657*
X01665D02*
X01672Y0168D01*
X01696Y01703D02*
X0168D01*
Y01692*
X01688Y01695*
X01692*
X01696Y01692*
Y01684*
X01692Y0168*
X01684*
X0168Y01684*
X0188Y0172D02*
X01856D01*
Y01732*
X0186Y01736*
X01868*
X01872Y01732*
Y0172*
Y01728D02*
X0188Y01736D01*
X01856Y01759D02*
X0186Y01751D01*
X01868Y01743*
X01876*
X0188Y01747*
Y01755*
X01876Y01759*
X01872*
X01868Y01755*
Y01743*
X01744Y01795D02*
Y01818D01*
X01756*
X01759Y01814*
Y01807*
X01756Y01803*
X01744*
X01752D02*
X01759Y01795D01*
X01767Y01818D02*
X01783D01*
Y01814*
X01767Y01799*
Y01795*
X0189Y015D02*
Y01523D01*
X01902*
X01906Y01519*
Y01512*
X01902Y01508*
X0189*
X01898D02*
X01906Y015D01*
X01913Y01519D02*
X01917Y01523D01*
X01925*
X01929Y01519*
Y01516*
X01925Y01512*
X01929Y01508*
Y01504*
X01925Y015*
X01917*
X01913Y01504*
Y01508*
X01917Y01512*
X01913Y01516*
Y01519*
X01917Y01512D02*
X01925D01*
X0183Y0172D02*
X01806D01*
Y01732*
X0181Y01736*
X01818*
X01822Y01732*
Y0172*
Y01728D02*
X0183Y01736D01*
X01826Y01743D02*
X0183Y01747D01*
Y01755*
X01826Y01759*
X0181*
X01806Y01755*
Y01747*
X0181Y01743*
X01814*
X01818Y01747*
Y01759*
X01406Y01209D02*
X01402Y01213D01*
X01394*
X0139Y01209*
Y01205*
X01394Y01202*
X01402*
X01406Y01198*
Y01194*
X01402Y0119*
X01394*
X0139Y01194*
X01413Y01213D02*
Y0119D01*
X01421Y01198*
X01429Y0119*
Y01213*
X01437Y0119D02*
X01445D01*
X01441*
Y01213*
X01437Y01209*
X014Y02233D02*
Y02214D01*
X01404Y0221*
X01412*
X01416Y02214*
Y02233*
X01423Y0221D02*
X01431D01*
X01427*
Y02233*
X01423Y02229*
X0145Y01663D02*
Y01644D01*
X01454Y0164*
X01462*
X01465Y01644*
Y01663*
X01489Y0164D02*
X01473D01*
X01489Y01656*
Y01659*
X01485Y01663*
X01477*
X01473Y01659*
X0131Y02043D02*
X01325Y0202D01*
Y02043D02*
X0131Y0202D01*
X01333D02*
X01341D01*
X01337*
Y02043*
X01333Y02039*
G54D34*
X01152Y0221D02*
D01*
X01152Y02211*
X01152Y02211*
X01152Y02211*
X01152Y02212*
X01152Y02212*
X01152Y02212*
X01152Y02213*
X01151Y02213*
X01151Y02213*
X01151Y02214*
X01151Y02214*
X0115Y02214*
X0115Y02214*
X0115Y02214*
X0115Y02215*
X01149Y02215*
X01149Y02215*
X01149Y02215*
X01148Y02215*
X01148Y02215*
X01148Y02215*
X01147Y02215*
X01147*
X01147Y02215*
X01146Y02215*
X01146Y02215*
X01146Y02215*
X01145Y02215*
X01145Y02215*
X01145Y02215*
X01144Y02214*
X01144Y02214*
X01144Y02214*
X01144Y02214*
X01143Y02214*
X01143Y02213*
X01143Y02213*
X01143Y02213*
X01143Y02212*
X01143Y02212*
X01142Y02212*
X01142Y02211*
X01142Y02211*
X01142Y02211*
X01142Y0221*
X01142Y0221*
X01142Y0221*
X01142Y02209*
X01142Y02209*
X01143Y02209*
X01143Y02208*
X01143Y02208*
X01143Y02208*
X01143Y02207*
X01143Y02207*
X01144Y02207*
X01144Y02207*
X01144Y02206*
X01144Y02206*
X01145Y02206*
X01145Y02206*
X01145Y02206*
X01146Y02206*
X01146Y02206*
X01146Y02206*
X01147Y02205*
X01147Y02205*
X01147*
X01148Y02205*
X01148Y02206*
X01148Y02206*
X01149Y02206*
X01149Y02206*
X01149Y02206*
X0115Y02206*
X0115Y02206*
X0115Y02206*
X0115Y02207*
X01151Y02207*
X01151Y02207*
X01151Y02207*
X01151Y02208*
X01152Y02208*
X01152Y02208*
X01152Y02209*
X01152Y02209*
X01152Y02209*
X01152Y0221*
X01152Y0221*
X01152Y0221*
X0152Y01638D02*
D01*
X0152Y01638*
X0152Y01639*
X0152Y01639*
X0152Y01639*
X0152Y0164*
X0152Y0164*
X01519Y0164*
X01519Y01641*
X01519Y01641*
X01519Y01641*
X01519Y01641*
X01518Y01642*
X01518Y01642*
X01518Y01642*
X01517Y01642*
X01517Y01642*
X01517Y01643*
X01517Y01643*
X01516Y01643*
X01516Y01643*
X01516Y01643*
X01515Y01643*
X01515*
X01514Y01643*
X01514Y01643*
X01514Y01643*
X01513Y01643*
X01513Y01643*
X01513Y01642*
X01513Y01642*
X01512Y01642*
X01512Y01642*
X01512Y01642*
X01511Y01641*
X01511Y01641*
X01511Y01641*
X01511Y01641*
X01511Y0164*
X01511Y0164*
X0151Y0164*
X0151Y01639*
X0151Y01639*
X0151Y01639*
X0151Y01638*
X0151Y01638*
X0151Y01638*
X0151Y01637*
X0151Y01637*
X0151Y01637*
X0151Y01636*
X01511Y01636*
X01511Y01636*
X01511Y01635*
X01511Y01635*
X01511Y01635*
X01511Y01635*
X01512Y01634*
X01512Y01634*
X01512Y01634*
X01513Y01634*
X01513Y01634*
X01513Y01633*
X01513Y01633*
X01514Y01633*
X01514Y01633*
X01514Y01633*
X01515Y01633*
X01515*
X01516Y01633*
X01516Y01633*
X01516Y01633*
X01517Y01633*
X01517Y01633*
X01517Y01634*
X01517Y01634*
X01518Y01634*
X01518Y01634*
X01518Y01634*
X01519Y01635*
X01519Y01635*
X01519Y01635*
X01519Y01635*
X01519Y01636*
X0152Y01636*
X0152Y01636*
X0152Y01637*
X0152Y01637*
X0152Y01637*
X0152Y01638*
X0152Y01638*
X01689Y01805D02*
D01*
X01689Y01805*
X01689Y01806*
X01689Y01806*
X01689Y01806*
X01689Y01807*
X01689Y01807*
X01689Y01807*
X01689Y01807*
X01688Y01808*
X01688Y01808*
X01688Y01808*
X01688Y01808*
X01687Y01809*
X01687Y01809*
X01687Y01809*
X01687Y01809*
X01686Y01809*
X01686Y01809*
X01686Y0181*
X01685Y0181*
X01685Y0181*
X01685Y0181*
X01684*
X01684Y0181*
X01684Y0181*
X01683Y0181*
X01683Y01809*
X01683Y01809*
X01682Y01809*
X01682Y01809*
X01682Y01809*
X01681Y01809*
X01681Y01808*
X01681Y01808*
X01681Y01808*
X0168Y01808*
X0168Y01807*
X0168Y01807*
X0168Y01807*
X0168Y01807*
X0168Y01806*
X0168Y01806*
X01679Y01806*
X01679Y01805*
X01679Y01805*
X01679Y01804*
X01679Y01804*
X0168Y01804*
X0168Y01803*
X0168Y01803*
X0168Y01803*
X0168Y01803*
X0168Y01802*
X0168Y01802*
X01681Y01802*
X01681Y01801*
X01681Y01801*
X01681Y01801*
X01682Y01801*
X01682Y01801*
X01682Y018*
X01683Y018*
X01683Y018*
X01683Y018*
X01684Y018*
X01684Y018*
X01684Y018*
X01685*
X01685Y018*
X01685Y018*
X01686Y018*
X01686Y018*
X01686Y018*
X01687Y018*
X01687Y01801*
X01687Y01801*
X01687Y01801*
X01688Y01801*
X01688Y01801*
X01688Y01802*
X01688Y01802*
X01689Y01802*
X01689Y01803*
X01689Y01803*
X01689Y01803*
X01689Y01803*
X01689Y01804*
X01689Y01804*
X01689Y01804*
X01689Y01805*
G54D35*
X0195Y0158D02*
D01*
X01949Y0158*
X01949Y01581*
X01949Y01582*
X01949Y01582*
X01949Y01583*
X01949Y01584*
X01948Y01584*
X01948Y01585*
X01948Y01585*
X01947Y01586*
X01947Y01586*
X01946Y01587*
X01946Y01587*
X01945Y01588*
X01945Y01588*
X01944Y01588*
X01943Y01589*
X01943Y01589*
X01942Y01589*
X01941Y01589*
X01941Y01589*
X0194Y01589*
X01939*
X01938Y01589*
X01938Y01589*
X01937Y01589*
X01936Y01589*
X01936Y01589*
X01935Y01588*
X01935Y01588*
X01934Y01588*
X01933Y01587*
X01933Y01587*
X01932Y01586*
X01932Y01586*
X01931Y01585*
X01931Y01585*
X01931Y01584*
X0193Y01584*
X0193Y01583*
X0193Y01582*
X0193Y01582*
X0193Y01581*
X0193Y0158*
X0193Y0158*
X0193Y01579*
X0193Y01578*
X0193Y01577*
X0193Y01577*
X0193Y01576*
X0193Y01575*
X01931Y01575*
X01931Y01574*
X01931Y01574*
X01932Y01573*
X01932Y01573*
X01933Y01572*
X01933Y01572*
X01934Y01571*
X01935Y01571*
X01935Y01571*
X01936Y0157*
X01936Y0157*
X01937Y0157*
X01938Y0157*
X01938Y0157*
X01939Y0157*
X0194*
X01941Y0157*
X01941Y0157*
X01942Y0157*
X01943Y0157*
X01943Y0157*
X01944Y01571*
X01945Y01571*
X01945Y01571*
X01946Y01572*
X01946Y01572*
X01947Y01573*
X01947Y01573*
X01948Y01574*
X01948Y01574*
X01948Y01575*
X01949Y01575*
X01949Y01576*
X01949Y01577*
X01949Y01577*
X01949Y01578*
X01949Y01579*
X0195Y0158*
G54D36*
X01625Y01589D02*
D01*
X01625Y01589*
X01625Y0159*
X01625Y01591*
X01625Y01592*
X01625Y01593*
X01624Y01593*
X01624Y01594*
X01623Y01595*
X01623Y01595*
X01622Y01596*
X01622Y01597*
X01621Y01597*
X01621Y01598*
X0162Y01598*
X01619Y01599*
X01619Y01599*
X01618Y016*
X01617Y016*
X01616Y016*
X01615Y016*
X01615Y016*
X01614Y016*
X01613*
X01612Y016*
X01611Y016*
X01611Y016*
X0161Y016*
X01609Y016*
X01608Y01599*
X01608Y01599*
X01607Y01598*
X01606Y01598*
X01606Y01597*
X01605Y01597*
X01604Y01596*
X01604Y01595*
X01603Y01595*
X01603Y01594*
X01603Y01593*
X01602Y01593*
X01602Y01592*
X01602Y01591*
X01602Y0159*
X01602Y01589*
X01602Y01589*
X01602Y01588*
X01602Y01587*
X01602Y01586*
X01602Y01585*
X01602Y01585*
X01603Y01584*
X01603Y01583*
X01603Y01582*
X01604Y01582*
X01604Y01581*
X01605Y0158*
X01606Y0158*
X01606Y01579*
X01607Y01579*
X01608Y01578*
X01608Y01578*
X01609Y01578*
X0161Y01577*
X01611Y01577*
X01611Y01577*
X01612Y01577*
X01613Y01577*
X01614*
X01615Y01577*
X01615Y01577*
X01616Y01577*
X01617Y01577*
X01618Y01578*
X01619Y01578*
X01619Y01578*
X0162Y01579*
X01621Y01579*
X01621Y0158*
X01622Y0158*
X01622Y01581*
X01623Y01582*
X01623Y01582*
X01624Y01583*
X01624Y01584*
X01625Y01585*
X01625Y01585*
X01625Y01586*
X01625Y01587*
X01625Y01588*
X01625Y01589*
G54D37*
X01178Y02199D02*
X01217D01*
Y02167D02*
Y02199D01*
X01178Y0208D02*
X01217D01*
Y02112*
X01975Y01955D02*
X02285D01*
Y02235*
X01975Y01955D02*
Y02235D01*
X02285*
X01574Y01431D02*
X01645D01*
X01574Y01628D02*
X01645D01*
Y01431D02*
Y01628D01*
X01574Y01431D02*
Y01628D01*
X01673Y01735D02*
Y01774D01*
X01641Y01735D02*
X01673D01*
X01554D02*
Y01774D01*
Y01735D02*
X01586D01*
X01486Y01728D02*
X01493D01*
X01486Y01751D02*
X01493D01*
X0132Y01901D02*
Y01948D01*
X01379Y01901D02*
Y01948D01*
G54D38*
X0194Y0181D02*
X0224D01*
X0194Y0161D02*
X0224D01*
X0194D02*
Y0181D01*
X0224Y0161D02*
Y0181D01*
M02*