%FSTAX23Y23*%
%MOIN*%
%SFA1B1*%

%IPPOS*%
%AMD32*
4,1,8,0.098400,0.196800,-0.098400,0.196800,-0.196800,0.098400,-0.196800,-0.098400,-0.098400,-0.196800,0.098400,-0.196800,0.196800,-0.098400,0.196800,0.098400,0.098400,0.196800,0.0*
1,1,0.196860,0.098400,0.098400*
1,1,0.196860,-0.098400,0.098400*
1,1,0.196860,-0.098400,-0.098400*
1,1,0.196860,0.098400,-0.098400*
%
%ADD23C,0.005000*%
%ADD26C,0.034000*%
%ADD27C,0.092000*%
%ADD28C,0.050000*%
%ADD29C,0.060000*%
%ADD30C,0.020000*%
%ADD31C,0.196850*%
G04~CAMADD=32~8~0.0~0.0~3937.0~3937.0~984.3~0.0~15~0.0~0.0~0.0~0.0~0~0.0~0.0~0.0~0.0~0~0.0~0.0~0.0~0.0~3937.0~3937.0*
%ADD32D32*%
%ADD33R,0.200000X0.200000*%
%LNpumpminder_v2-1*%
%LPD*%
G36*
X023Y01625D02*
X01992Y01317D01*
X01986Y01316*
X01974Y01312*
X01962Y01306*
X01952Y01297*
X01943Y01287*
X01937Y01275*
X01933Y01263*
X01932Y01257*
X01675Y01*
X01625*
X01Y01625*
Y01675*
Y0225*
X01445*
X01448Y02246*
Y0223*
X01834*
X01834Y0225*
X023*
Y01625*
G37*
%LNpumpminder_v2-2*%
%LPC*%
G36*
X0216Y0177D02*
X02055D01*
Y01665*
X0216*
Y0177*
G37*
G36*
X02275D02*
X0217D01*
Y01665*
X02275*
Y0177*
G37*
G36*
X0113D02*
X01025D01*
Y01665*
X0113*
Y0177*
G37*
G36*
X01245D02*
X0114D01*
Y01665*
X01245*
Y0177*
G37*
G36*
X02275Y01885D02*
X0217D01*
Y0178*
X02275*
Y01885*
G37*
G36*
X01275Y01829D02*
X0126D01*
X01261Y01826*
X01265Y01819*
X01272Y01815*
X01275Y01814*
Y01829*
G37*
G36*
X0113Y01885D02*
X01025D01*
Y0178*
X0113*
Y01885*
G37*
G36*
X01245D02*
X0114D01*
Y0178*
X01245*
Y01885*
G37*
G36*
X0205Y01567D02*
Y01553D01*
X02064*
X02063Y01555*
X02059Y01562*
X02052Y01566*
X0205Y01567*
G37*
G36*
X01495Y0141D02*
X01481D01*
Y01396*
X01483Y01396*
X0149Y01401*
X01494Y01407*
X01495Y0141*
G37*
G36*
X01471Y01434D02*
X01468Y01434D01*
X01461Y01429*
X01457Y01423*
X01456Y0142*
X01471*
Y01434*
G37*
G36*
X01433Y01455D02*
X01427Y01454D01*
X01422Y0145*
X01418Y01445*
X01417Y0144*
X01418Y01434*
X0142Y01431*
Y01378*
X01417Y01376*
X01413Y01371*
X01412Y01366*
X01413Y0136*
X01417Y01355*
X01422Y01351*
X01428Y0135*
X01433Y01351*
X01438Y01355*
X01442Y0136*
X01443Y01366*
X01442Y01371*
X01438Y01376*
X01435Y01378*
Y01425*
X01438Y01425*
X01443Y01429*
X01447Y01434*
X01448Y0144*
X01447Y01445*
X01443Y0145*
X01438Y01454*
X01433Y01455*
G37*
G36*
X01471Y0141D02*
X01456D01*
X01457Y01407*
X01461Y01401*
X01468Y01396*
X01471Y01396*
Y0141*
G37*
G36*
X02064Y01543D02*
X0205D01*
Y01528*
X02052Y01529*
X02059Y01533*
X02063Y0154*
X02064Y01543*
G37*
G36*
X0204Y01567D02*
X02037Y01566D01*
X0203Y01562*
X02026Y01555*
X02025Y01553*
X0204*
Y01567*
G37*
G36*
X01481Y01434D02*
Y0142D01*
X01495*
X01494Y01423*
X0149Y01429*
X01483Y01434*
X01481Y01434*
G37*
G36*
X0204Y01543D02*
X02025D01*
X02026Y0154*
X0203Y01533*
X02037Y01529*
X0204Y01528*
Y01543*
G37*
G36*
X01275Y01853D02*
X01272Y01852D01*
X01265Y01848*
X01261Y01841*
X0126Y01839*
X01275*
Y01853*
G37*
G36*
X01885Y02164D02*
X01882Y02163D01*
X01875Y02159*
X01871Y02152*
X0187Y02149*
X01885*
Y02164*
G37*
G36*
X01895D02*
Y02149D01*
X01909*
X01909Y02152*
X01904Y02159*
X01898Y02163*
X01895Y02164*
G37*
G36*
X01393Y02146D02*
X01378D01*
X01379Y02143*
X01383Y02136*
X0139Y02132*
X01393Y02131*
Y02146*
G37*
G36*
X01417D02*
X01403D01*
Y02131*
X01405Y02132*
X01412Y02136*
X01416Y02143*
X01417Y02146*
G37*
G36*
X0213Y02202D02*
X02121Y02201D01*
X02113Y02196*
X02108Y02188*
X02107Y0218*
X02108Y02171*
X02113Y02163*
X02121Y02158*
X0213Y02157*
X02138Y02158*
X02146Y02163*
X02151Y02171*
X02152Y0218*
X02151Y02188*
X02146Y02196*
X02138Y02201*
X0213Y02202*
G37*
G36*
X0203Y02231D02*
X02016Y0223D01*
X02004Y02224*
X01993Y02216*
X01985Y02205*
X01979Y02193*
X01978Y0218*
X01979Y02166*
X0198Y02164*
X01976Y02162*
X01973Y02165*
X01968Y02169*
X01963Y0217*
X01957Y02169*
X01952Y02165*
X01948Y0216*
X01947Y02155*
X01948Y02149*
X01952Y02144*
X01955Y02142*
Y02032*
X01955Y02029*
X01957Y02026*
X02008Y01975*
X02007Y01972*
X02008Y01966*
X02012Y01961*
X02017Y01957*
X02023Y01956*
X02028Y01957*
X02033Y01961*
X02037Y01966*
X02038Y01972*
X02037Y01977*
X02033Y01982*
X02028Y01986*
X02023Y01987*
X02019Y01986*
X01995Y0201*
X01998Y02013*
X02004Y0201*
X02016Y02004*
X0203Y02003*
X02043Y02004*
X02055Y0201*
X02066Y02018*
X02074Y02029*
X0208Y02041*
X02081Y02055*
X0208Y02068*
X02074Y0208*
X02066Y02091*
X02055Y02099*
X02043Y02105*
X0203Y02106*
X02016Y02105*
X02004Y02099*
X01993Y02091*
X01985Y0208*
X01979Y02068*
X01978Y02055*
X01979Y02041*
X01985Y02029*
X01988Y02023*
X01985Y0202*
X0197Y02035*
Y02142*
X01973Y02144*
X01977Y02149*
X01978Y02155*
X01977Y02159*
X01982Y0216*
X01985Y02154*
X01993Y02143*
X02004Y02135*
X02016Y02129*
X0203Y02128*
X02043Y02129*
X02055Y02135*
X02066Y02143*
X02074Y02154*
X0208Y02166*
X02081Y0218*
X0208Y02193*
X02074Y02205*
X02066Y02216*
X02055Y02224*
X02043Y0223*
X0203Y02231*
G37*
G36*
X01393Y0217D02*
X0139Y02169D01*
X01383Y02165*
X01379Y02158*
X01378Y02156*
X01393*
Y0217*
G37*
G36*
X01403D02*
Y02156D01*
X01417*
X01416Y02158*
X01412Y02165*
X01405Y02169*
X01403Y0217*
G37*
G36*
X0223Y02231D02*
X02216Y0223D01*
X02204Y02224*
X02193Y02216*
X02185Y02205*
X02179Y02193*
X02178Y0218*
X02179Y02166*
X02185Y02154*
X02193Y02143*
X02204Y02135*
X02216Y02129*
X0223Y02128*
X02243Y02129*
X02255Y02135*
X02266Y02143*
X02274Y02154*
X0228Y02166*
X02281Y0218*
X0228Y02193*
X02274Y02205*
X02266Y02216*
X02255Y02224*
X02243Y0223*
X0223Y02231*
G37*
G36*
X02034Y01919D02*
X02031Y01918D01*
X02024Y01914*
X0202Y01907*
X02019Y01905*
X02034*
Y01919*
G37*
G36*
X02044D02*
Y01905D01*
X02058*
X02057Y01907*
X02053Y01914*
X02046Y01918*
X02044Y01919*
G37*
G36*
X0165Y02134D02*
X01614Y02133D01*
X01579Y02127*
X01545Y02119*
X01512Y02107*
X0148Y02092*
X0145Y02074*
X01421Y02053*
X01395Y02029*
X01371Y02003*
X0135Y01974*
X01332Y01944*
X01317Y01912*
X01305Y01879*
X01298Y01851*
X01296Y01849*
X01293Y01848*
X01287Y01852*
X01285Y01853*
Y01834*
Y01814*
X01287Y01815*
X01288Y01815*
X01292Y01812*
X01291Y0181*
X0129Y01775*
X01291Y01739*
X01297Y01704*
X01305Y0167*
X01317Y01637*
X01332Y01605*
X0135Y01575*
X01371Y01546*
X01395Y0152*
X01421Y01496*
X0145Y01475*
X0148Y01457*
X01512Y01442*
X01545Y0143*
X01579Y01422*
X01614Y01416*
X0165Y01415*
X01685Y01416*
X0172Y01422*
X01754Y0143*
X01787Y01442*
X01819Y01457*
X01849Y01475*
X01878Y01496*
X01897Y01514*
X019Y0151*
X01895Y01505*
X01893Y01502*
X01893Y015*
Y01483*
X0189Y01481*
X01886Y01476*
X01885Y01471*
X01886Y01465*
X0189Y0146*
X01895Y01456*
X01901Y01455*
X01906Y01456*
X01911Y0146*
X01915Y01465*
X01916Y01471*
X01915Y01476*
X01911Y01481*
X01908Y01483*
Y01496*
X01934Y01522*
X01938Y01521*
X01943Y01522*
X01948Y01526*
X01952Y01531*
X01953Y01537*
X01952Y01542*
X01948Y01547*
X01943Y01551*
X01938Y01552*
X01936Y01558*
X01949Y01575*
X01967Y01605*
X01982Y01637*
X01994Y0167*
X02002Y01704*
X02008Y01739*
X02009Y01775*
X02008Y0181*
X02002Y01845*
X01994Y01879*
X01982Y01912*
X01967Y01944*
X01949Y01974*
X01928Y02003*
X01904Y02029*
X01878Y02053*
X01849Y02074*
X01819Y02092*
X01787Y02107*
X01754Y02119*
X0172Y02127*
X01685Y02133*
X0165Y02134*
G37*
G36*
X02034Y01895D02*
X02019D01*
X0202Y01892*
X02024Y01885*
X02031Y01881*
X02034Y0188*
Y01895*
G37*
G36*
X01885Y02139D02*
X0187D01*
X01871Y02136*
X01875Y0213*
X01882Y02125*
X01885Y02125*
Y02139*
G37*
G36*
X01909D02*
X01895D01*
Y02125*
X01898Y02125*
X01904Y0213*
X01909Y02136*
X01909Y02139*
G37*
G36*
X0217Y02002D02*
X02161Y02001D01*
X02153Y01996*
X02148Y01988*
X02148Y01988*
X02143*
X02143Y0199*
X02139Y01995*
X02134Y01999*
X02129Y02*
X02123Y01999*
X02118Y01995*
X02114Y0199*
X02109Y01992*
X02106Y01996*
X02098Y02001*
X0209Y02002*
X02081Y02001*
X02073Y01996*
X02068Y01988*
X02067Y0198*
X02068Y01971*
X02073Y01963*
X02081Y01958*
X0209Y01957*
X02098Y01958*
X02106Y01963*
X02111Y01971*
X02111Y01975*
X02116Y01976*
X02118Y01974*
X02121Y01972*
Y01913*
X02118Y01911*
X02114Y01906*
X02113Y01901*
X02114Y01895*
X02118Y0189*
X02118Y01889*
X02117Y01885*
X02058*
X02055Y01889*
X02057Y01892*
X02058Y01895*
X02044*
Y0188*
X02046Y01881*
X0205Y01883*
X02055Y01881*
Y0178*
X0216*
Y01885*
X0214*
X02139Y01889*
X02139Y0189*
X02143Y01895*
X02144Y01901*
X02143Y01906*
X02139Y01911*
X02136Y01913*
Y01972*
X02139Y01974*
X02142Y01978*
X02147Y01977*
X02148Y01971*
X02153Y01963*
X02161Y01958*
X0217Y01957*
X02178Y01958*
X02186Y01963*
X02191Y01971*
X02192Y0198*
X02191Y01988*
X02186Y01996*
X02178Y02001*
X0217Y02002*
G37*
G36*
X0223Y02106D02*
X02216Y02105D01*
X02204Y02099*
X02193Y02091*
X02185Y0208*
X02179Y02068*
X02178Y02055*
X02179Y02041*
X02185Y02029*
X02193Y02018*
X02204Y0201*
X02216Y02004*
X0223Y02003*
X02243Y02004*
X02255Y0201*
X02266Y02018*
X02274Y02029*
X0228Y02041*
X02281Y02055*
X0228Y02068*
X02274Y0208*
X02266Y02091*
X02255Y02099*
X02243Y02105*
X0223Y02106*
G37*
%LNpumpminder_v2-3*%
%LPD*%
G54D23*
X01428Y01366D02*
Y01435D01*
X01433Y0144*
X01901Y01471D02*
Y015D01*
X01938Y01537*
X01963Y02032D02*
Y02155D01*
Y02032D02*
X02023Y01972D01*
X02129Y01901D02*
Y01985D01*
G54D26*
X0213Y0218D03*
X0217Y0198D03*
X0209D03*
G54D27*
X0203Y0218D03*
X0223D03*
Y02055D03*
X0203D03*
G54D28*
X0125Y0125D03*
X01908Y01897D03*
X01372Y01684D03*
X01645Y02018D03*
G54D29*
X02Y0125D03*
G54D30*
X01398Y02151D03*
X0128Y01834D03*
X01476Y01415D03*
X01428Y01366D03*
X01433Y0144D03*
X01901Y01471D03*
X01938Y01537D03*
X02039Y019D03*
X02045Y01548D03*
X01963Y02155D03*
X02023Y01972D03*
X0189Y02144D03*
X02129Y01985D03*
Y01901D03*
G54D31*
X01905Y01775D02*
D01*
X01905Y01792*
X01903Y0181*
X019Y01828*
X01895Y01845*
X0189Y01862*
X01883Y01879*
X01875Y01895*
X01867Y0191*
X01857Y01925*
X01846Y01939*
X01834Y01952*
X01821Y01965*
X01807Y01976*
X01793Y01987*
X01777Y01996*
X01762Y02005*
X01745Y02012*
X01729Y02018*
X01711Y02023*
X01694Y02027*
X01676Y02029*
X01658Y0203*
X01641*
X01623Y02029*
X01605Y02027*
X01588Y02023*
X0157Y02018*
X01554Y02012*
X01537Y02005*
X01522Y01996*
X01506Y01987*
X01492Y01976*
X01478Y01965*
X01465Y01952*
X01453Y01939*
X01442Y01925*
X01432Y0191*
X01424Y01895*
X01416Y01879*
X01409Y01862*
X01404Y01845*
X01399Y01828*
X01396Y0181*
X01394Y01792*
X01394Y01775*
X01394Y01757*
X01396Y01739*
X01399Y01721*
X01404Y01704*
X01409Y01687*
X01416Y0167*
X01424Y01654*
X01432Y01639*
X01442Y01624*
X01453Y0161*
X01465Y01597*
X01478Y01584*
X01492Y01573*
X01506Y01562*
X01522Y01553*
X01537Y01544*
X01554Y01537*
X0157Y01531*
X01588Y01526*
X01605Y01522*
X01623Y0152*
X01641Y01519*
X01658*
X01676Y0152*
X01694Y01522*
X01711Y01526*
X01729Y01531*
X01745Y01537*
X01762Y01544*
X01777Y01553*
X01793Y01562*
X01807Y01573*
X01821Y01584*
X01834Y01597*
X01846Y0161*
X01857Y01624*
X01867Y01639*
X01875Y01654*
X01883Y0167*
X0189Y01687*
X01895Y01704*
X019Y01721*
X01903Y01739*
X01905Y01757*
X01905Y01775*
G54D32*
X0165Y01775D03*
G54D33*
X01135Y01775D03*
X02165D03*
M02*