%FSTAX23Y23*%
%MOIN*%
%SFA1B1*%

%IPPOS*%
%ADD23C,0.005000*%
%ADD59C,0.006670*%
%LNpumpminder_v2-1*%
%LPD*%
G54D23*
X0211Y0216D02*
Y022D01*
X0215*
Y0216*
X0211*
X0215Y0196D02*
Y02D01*
X0219*
Y0196*
X0215*
X0207D02*
Y02D01*
X0211*
Y0196*
X0207*
X0125Y0123D02*
X0123Y0127D01*
X0127*
X0125Y0123*
X02D02*
X0198Y0127D01*
X0202*
X02Y0123*
X01398Y02131D02*
X01408Y02141D01*
X01418*
X01408Y02151*
X01418Y02161*
X01408*
X01398Y02171*
X01388Y02161*
X01378*
X01388Y02151*
X01378Y02141*
X01388*
X01398Y02131*
X0128Y01814D02*
X0129Y01824D01*
X013*
X0129Y01834*
X013Y01844*
X0129*
X0128Y01854*
X0127Y01844*
X0126*
X0127Y01834*
X0126Y01824*
X0127*
X0128Y01814*
X01888Y01877D02*
X01898Y01897D01*
X01888Y01917*
X01908Y01907*
X01928Y01917*
X01918Y01897*
X01928Y01877*
X01908Y01887*
X01888Y01877*
X01476Y01395D02*
X01486Y01405D01*
X01496*
X01486Y01415*
X01496Y01425*
X01486*
X01476Y01435*
X01466Y01425*
X01456*
X01466Y01415*
X01456Y01405*
X01466*
X01476Y01395*
X01428Y01346D02*
X01438Y01356D01*
X01448*
X01438Y01366*
X01448Y01376*
X01438*
X01428Y01386*
X01418Y01376*
X01408*
X01418Y01366*
X01408Y01356*
X01418*
X01428Y01346*
X01433Y0142D02*
X01443Y0143D01*
X01453*
X01443Y0144*
X01453Y0145*
X01443*
X01433Y0146*
X01423Y0145*
X01413*
X01423Y0144*
X01413Y0143*
X01423*
X01433Y0142*
X01901Y01451D02*
X01911Y01461D01*
X01921*
X01911Y01471*
X01921Y01481*
X01911*
X01901Y01491*
X01891Y01481*
X01881*
X01891Y01471*
X01881Y01461*
X01891*
X01901Y01451*
X01938Y01517D02*
X01948Y01527D01*
X01958*
X01948Y01537*
X01958Y01547*
X01948*
X01938Y01557*
X01928Y01547*
X01918*
X01928Y01537*
X01918Y01527*
X01928*
X01938Y01517*
X02039Y0188D02*
X02049Y0189D01*
X02059*
X02049Y019*
X02059Y0191*
X02049*
X02039Y0192*
X02029Y0191*
X02019*
X02029Y019*
X02019Y0189*
X02029*
X02039Y0188*
X02045Y01528D02*
X02055Y01538D01*
X02065*
X02055Y01548*
X02065Y01558*
X02055*
X02045Y01568*
X02035Y01558*
X02025*
X02035Y01548*
X02025Y01538*
X02035*
X02045Y01528*
X01963Y02135D02*
X01973Y02145D01*
X01983*
X01973Y02155*
X01983Y02165*
X01973*
X01963Y02175*
X01953Y02165*
X01943*
X01953Y02155*
X01943Y02145*
X01953*
X01963Y02135*
X02023Y01952D02*
X02033Y01962D01*
X02043*
X02033Y01972*
X02043Y01982*
X02033*
X02023Y01992*
X02013Y01982*
X02003*
X02013Y01972*
X02003Y01962*
X02013*
X02023Y01952*
X0189Y02124D02*
X019Y02134D01*
X0191*
X019Y02144*
X0191Y02154*
X019*
X0189Y02164*
X0188Y02154*
X0187*
X0188Y02144*
X0187Y02134*
X0188*
X0189Y02124*
X02129Y01965D02*
X02139Y01975D01*
X02149*
X02139Y01985*
X02149Y01995*
X02139*
X02129Y02005*
X02119Y01995*
X02109*
X02119Y01985*
X02109Y01975*
X02119*
X02129Y01965*
Y01881D02*
X02139Y01891D01*
X02149*
X02139Y01901*
X02149Y01911*
X02139*
X02129Y01921*
X02119Y01911*
X02109*
X02119Y01901*
X02109Y01891*
X02119*
X02129Y01881*
X01352Y01664D02*
X01362Y01684D01*
X01352Y01704*
X01372Y01694*
X01392Y01704*
X01382Y01684*
X01392Y01664*
X01372Y01674*
X01352Y01664*
X01625Y01998D02*
X01635Y02018D01*
X01625Y02038*
X01645Y02028*
X01665Y02038*
X01655Y02018*
X01665Y01998*
X01645Y02008*
X01625Y01998*
G54D59*
X0205Y0218D02*
D01*
X02049Y02181*
X02049Y02182*
X02049Y02184*
X02049Y02185*
X02048Y02186*
X02048Y02188*
X02047Y02189*
X02046Y0219*
X02046Y02191*
X02045Y02192*
X02044Y02193*
X02043Y02194*
X02042Y02195*
X02041Y02196*
X0204Y02197*
X02038Y02197*
X02037Y02198*
X02036Y02199*
X02034Y02199*
X02033Y02199*
X02032Y02199*
X0203Y02199*
X02029*
X02027Y02199*
X02026Y02199*
X02025Y02199*
X02023Y02199*
X02022Y02198*
X02021Y02197*
X0202Y02197*
X02018Y02196*
X02017Y02195*
X02016Y02194*
X02015Y02193*
X02014Y02192*
X02013Y02191*
X02013Y0219*
X02012Y02189*
X02011Y02188*
X02011Y02186*
X0201Y02185*
X0201Y02184*
X0201Y02182*
X0201Y02181*
X0201Y0218*
X0201Y02178*
X0201Y02177*
X0201Y02175*
X0201Y02174*
X02011Y02173*
X02011Y02171*
X02012Y0217*
X02013Y02169*
X02013Y02168*
X02014Y02167*
X02015Y02166*
X02016Y02165*
X02017Y02164*
X02018Y02163*
X0202Y02162*
X02021Y02162*
X02022Y02161*
X02023Y0216*
X02025Y0216*
X02026Y0216*
X02027Y0216*
X02029Y0216*
X0203*
X02032Y0216*
X02033Y0216*
X02034Y0216*
X02036Y0216*
X02037Y02161*
X02038Y02162*
X0204Y02162*
X02041Y02163*
X02042Y02164*
X02043Y02165*
X02044Y02166*
X02045Y02167*
X02046Y02168*
X02046Y02169*
X02047Y0217*
X02048Y02171*
X02048Y02173*
X02049Y02174*
X02049Y02175*
X02049Y02177*
X02049Y02178*
X0205Y0218*
X0225D02*
D01*
X02249Y02181*
X02249Y02182*
X02249Y02184*
X02249Y02185*
X02248Y02186*
X02248Y02188*
X02247Y02189*
X02246Y0219*
X02246Y02191*
X02245Y02192*
X02244Y02193*
X02243Y02194*
X02242Y02195*
X02241Y02196*
X0224Y02197*
X02238Y02197*
X02237Y02198*
X02236Y02199*
X02234Y02199*
X02233Y02199*
X02232Y02199*
X0223Y02199*
X02229*
X02227Y02199*
X02226Y02199*
X02225Y02199*
X02223Y02199*
X02222Y02198*
X02221Y02197*
X0222Y02197*
X02218Y02196*
X02217Y02195*
X02216Y02194*
X02215Y02193*
X02214Y02192*
X02213Y02191*
X02213Y0219*
X02212Y02189*
X02211Y02188*
X02211Y02186*
X0221Y02185*
X0221Y02184*
X0221Y02182*
X0221Y02181*
X0221Y0218*
X0221Y02178*
X0221Y02177*
X0221Y02175*
X0221Y02174*
X02211Y02173*
X02211Y02171*
X02212Y0217*
X02213Y02169*
X02213Y02168*
X02214Y02167*
X02215Y02166*
X02216Y02165*
X02217Y02164*
X02218Y02163*
X0222Y02162*
X02221Y02162*
X02222Y02161*
X02223Y0216*
X02225Y0216*
X02226Y0216*
X02227Y0216*
X02229Y0216*
X0223*
X02232Y0216*
X02233Y0216*
X02234Y0216*
X02236Y0216*
X02237Y02161*
X02238Y02162*
X0224Y02162*
X02241Y02163*
X02242Y02164*
X02243Y02165*
X02244Y02166*
X02245Y02167*
X02246Y02168*
X02246Y02169*
X02247Y0217*
X02248Y02171*
X02248Y02173*
X02249Y02174*
X02249Y02175*
X02249Y02177*
X02249Y02178*
X0225Y0218*
Y02055D02*
D01*
X02249Y02056*
X02249Y02057*
X02249Y02059*
X02249Y0206*
X02248Y02061*
X02248Y02063*
X02247Y02064*
X02246Y02065*
X02246Y02066*
X02245Y02067*
X02244Y02068*
X02243Y02069*
X02242Y0207*
X02241Y02071*
X0224Y02072*
X02238Y02072*
X02237Y02073*
X02236Y02074*
X02234Y02074*
X02233Y02074*
X02232Y02074*
X0223Y02074*
X02229*
X02227Y02074*
X02226Y02074*
X02225Y02074*
X02223Y02074*
X02222Y02073*
X02221Y02072*
X0222Y02072*
X02218Y02071*
X02217Y0207*
X02216Y02069*
X02215Y02068*
X02214Y02067*
X02213Y02066*
X02213Y02065*
X02212Y02064*
X02211Y02063*
X02211Y02061*
X0221Y0206*
X0221Y02059*
X0221Y02057*
X0221Y02056*
X0221Y02055*
X0221Y02053*
X0221Y02052*
X0221Y0205*
X0221Y02049*
X02211Y02048*
X02211Y02046*
X02212Y02045*
X02213Y02044*
X02213Y02043*
X02214Y02042*
X02215Y02041*
X02216Y0204*
X02217Y02039*
X02218Y02038*
X0222Y02037*
X02221Y02037*
X02222Y02036*
X02223Y02035*
X02225Y02035*
X02226Y02035*
X02227Y02035*
X02229Y02035*
X0223*
X02232Y02035*
X02233Y02035*
X02234Y02035*
X02236Y02035*
X02237Y02036*
X02238Y02037*
X0224Y02037*
X02241Y02038*
X02242Y02039*
X02243Y0204*
X02244Y02041*
X02245Y02042*
X02246Y02043*
X02246Y02044*
X02247Y02045*
X02248Y02046*
X02248Y02048*
X02249Y02049*
X02249Y0205*
X02249Y02052*
X02249Y02053*
X0225Y02055*
X0205D02*
D01*
X02049Y02056*
X02049Y02057*
X02049Y02059*
X02049Y0206*
X02048Y02061*
X02048Y02063*
X02047Y02064*
X02046Y02065*
X02046Y02066*
X02045Y02067*
X02044Y02068*
X02043Y02069*
X02042Y0207*
X02041Y02071*
X0204Y02072*
X02038Y02072*
X02037Y02073*
X02036Y02074*
X02034Y02074*
X02033Y02074*
X02032Y02074*
X0203Y02074*
X02029*
X02027Y02074*
X02026Y02074*
X02025Y02074*
X02023Y02074*
X02022Y02073*
X02021Y02072*
X0202Y02072*
X02018Y02071*
X02017Y0207*
X02016Y02069*
X02015Y02068*
X02014Y02067*
X02013Y02066*
X02013Y02065*
X02012Y02064*
X02011Y02063*
X02011Y02061*
X0201Y0206*
X0201Y02059*
X0201Y02057*
X0201Y02056*
X0201Y02055*
X0201Y02053*
X0201Y02052*
X0201Y0205*
X0201Y02049*
X02011Y02048*
X02011Y02046*
X02012Y02045*
X02013Y02044*
X02013Y02043*
X02014Y02042*
X02015Y02041*
X02016Y0204*
X02017Y02039*
X02018Y02038*
X0202Y02037*
X02021Y02037*
X02022Y02036*
X02023Y02035*
X02025Y02035*
X02026Y02035*
X02027Y02035*
X02029Y02035*
X0203*
X02032Y02035*
X02033Y02035*
X02034Y02035*
X02036Y02035*
X02037Y02036*
X02038Y02037*
X0204Y02037*
X02041Y02038*
X02042Y02039*
X02043Y0204*
X02044Y02041*
X02045Y02042*
X02046Y02043*
X02046Y02044*
X02047Y02045*
X02048Y02046*
X02048Y02048*
X02049Y02049*
X02049Y0205*
X02049Y02052*
X02049Y02053*
X0205Y02055*
M02*